<svg id="Layer_1" data-name="Layer 1" xmlns="http://www.w3.org/2000/svg" viewBox="0 0 73.28 73.28"><defs><style>.cls-1{fill:#fff9d9;}</style></defs><title>back-home</title><g id="layer1"><path id="path3766-1" class="cls-1" d="M36.59,2.57a3.32,3.32,0,0,0-2.28,1L4.24,33.61a3.28,3.28,0,0,0,0,4.64l9,9V67.43a3.28,3.28,0,0,0,3.28,3.28H27.21a3.28,3.28,0,0,0,3.28-3.28V43.63H42.79V67.43a3.28,3.28,0,0,0,3.28,3.28H56.74A3.28,3.28,0,0,0,60,67.43V47.27l9-9a3.28,3.28,0,0,0,0-4.64L39,3.54A3.32,3.32,0,0,0,36.59,2.57Z"/></g></svg>