<svg xmlns="http://www.w3.org/2000/svg" viewBox="0 0 136.35 95.72"><defs><style>.cls-1{fill:#a15c03;}.cls-2{fill:#f1941e;}.cls-3{fill:#c4dfeb;}.cls-4{fill:#fff;}</style></defs><title>glasses</title><g id="Layer_2" data-name="Layer 2"><g id="Layer_1-2" data-name="Layer 1"><path class="cls-1" d="M12.58,3.76H124.37c0-1.23,0-2.51,0-3.76H12.62C12.6,1.26,12.58,2.53,12.58,3.76Z"/><path class="cls-1" d="M102.46,82.29l-4.37,6a1.54,1.54,0,0,0,0,2.12l4.44,3.21a1.54,1.54,0,0,0,2-.65l4.37-6a1.53,1.53,0,0,0,0-2.12l-.5-.36c-.23.28-.43.58-.67.86s-.38.43-.58.65c-1.23-1.09-2.46-2.18-3.66-3.29l1-1.07h0A1.54,1.54,0,0,0,102.46,82.29Z"/><path class="cls-1" d="M28,87l4.37,6a1.54,1.54,0,0,0,2,.65l4.44-3.21a1.53,1.53,0,0,0,0-2.12l-4.37-6a1.53,1.53,0,0,0-2-.64h0c.33.38.66.74,1,1.07-1.2,1.11-2.43,2.2-3.66,3.29-.19-.21-.39-.42-.58-.65s-.44-.58-.66-.86l-.5.36A1.53,1.53,0,0,0,28,87Z"/><path d="M32.47,81.65a1.53,1.53,0,0,1,2,.64l4.37,6a1.53,1.53,0,0,1,0,2.12L34.4,93.66a1.54,1.54,0,0,1-2-.65L28,87a1.53,1.53,0,0,1,0-2.12l.5-.36c-.43-.54-.85-1.07-1.25-1.63l-.45.32c-1.24.89-1.25,3,0,4.66l4.37,6c1.21,1.68,3.2,2.31,4.44,1.42L40,92.11c1.23-.89,1.25-3,0-4.66l-4.37-6c-1.21-1.67-3.2-2.31-4.44-1.42l-.12.08c.46.57.9,1.1,1.32,1.58Z"/><path class="cls-2" d="M12.58,3.76c0-1.23,0-2.51,0-3.76H6c.08,1.28.15,2.57.25,3.85a10.72,10.72,0,0,1,1.21-.09Z"/><path class="cls-2" d="M21.66,73.17a62.71,62.71,0,0,0,5.61,9.7c.4.55.82,1.09,1.25,1.63.23.28.43.58.66.86s.39.43.58.65c1.23-1.09,2.46-2.18,3.66-3.29-.31-.33-.63-.69-1-1.07s-.86-1-1.32-1.58A62.29,62.29,0,0,1,22.6,65.34a34.32,34.32,0,0,1-4.82-1.71C18.94,66.85,20.2,70,21.66,73.17Z"/><path d="M108.92,84.86a1.53,1.53,0,0,1,0,2.12l-4.37,6a1.54,1.54,0,0,1-2,.65l-4.44-3.21a1.54,1.54,0,0,1,0-2.12l4.37-6a1.54,1.54,0,0,1,2-.64h0c.42-.48.86-1,1.32-1.58l-.12-.08c-1.23-.89-3.22-.26-4.44,1.42l-4.37,6c-1.21,1.68-1.19,3.77,0,4.66l4.44,3.21c1.23.89,3.22.26,4.44-1.42l4.37-6c1.21-1.68,1.2-3.77,0-4.66l-.45-.32c-.39.55-.82,1.09-1.25,1.63Z"/><path class="cls-2" d="M124.37,3.76h4.53a10,10,0,0,1,1.8.16c.1-1.31.17-2.62.26-3.93h-6.63C124.34,1.26,124.36,2.53,124.37,3.76Z"/><path class="cls-2" d="M105.8,80.07c-.46.57-.9,1.1-1.32,1.58l-1,1.07c1.2,1.11,2.43,2.2,3.66,3.29.19-.21.39-.42.58-.65s.44-.58.67-.86c.43-.54.85-1.07,1.25-1.63a63,63,0,0,0,5.61-9.7c1.52-3.24,2.82-6.56,4-9.92a31.77,31.77,0,0,1-4.87,1.91A62.32,62.32,0,0,1,105.8,80.07Z"/><path class="cls-3" d="M128.9,8.65H7.44a3,3,0,0,0-2,.54,3.87,3.87,0,0,0-.54,2.5V12C4.71,33,6.07,47.43,13.46,54.9c5.52,5.58,14.76,7.88,29.85,7.53,10.09-.22,12.62-7.88,14.85-14.63,1.41-4.26,2.73-8.28,6.54-8.28h.4c.91,0,2.66-.05,3.36,0,.23,0,.51,0,.88,0l1.94,0h.37c3.8,0,5.13,4,6.54,8.28C80.42,54.54,82.95,62.2,93,62.42c15.1.35,24.34-1.95,29.85-7.52,7.39-7.46,8.75-21.94,8.55-42.88v-.33a3.88,3.88,0,0,0-.54-2.5A3,3,0,0,0,128.9,8.65ZM15.28,21.16a3.67,3.67,0,1,1,0-7.34H120.43a3.67,3.67,0,1,1,0,7.34Z"/><path d="M124.37,3.76H7.44a10.72,10.72,0,0,0-1.21.09A6.89,6.89,0,0,0,2,5.75c-2,2-2,4.79-2,6.22C-.2,34.74,1.36,49.63,10,58.34a25.29,25.29,0,0,0,7.79,5.29,34.32,34.32,0,0,0,4.82,1.71c5.52,1.53,12.34,2.16,20.83,2C57,67,60.62,55.94,62.8,49.32a28.25,28.25,0,0,1,1.89-4.93h.49c.71,0,2.12,0,2.77,0l.5.18.51-.18c.56,0,1.62,0,2.21,0l.24-.05c.62.44,1.53,3.18,2.12,5,2.19,6.61,5.84,17.69,19.39,18q1.48,0,2.9,0c7.5,0,13.61-.7,18.61-2.18a31.77,31.77,0,0,0,4.87-1.91,25.09,25.09,0,0,0,7.06-4.91c8.62-8.71,10.18-23.6,10-46.61,0-1.19,0-4-2-6a6.65,6.65,0,0,0-3.66-1.82,10,10,0,0,0-1.8-.16Zm7.07,7.93V12c.2,20.94-1.16,35.42-8.55,42.88-5.52,5.58-14.76,7.87-29.85,7.52-10.09-.22-12.62-7.88-14.85-14.63-1.4-4.26-2.73-8.28-6.54-8.28h-.37l-1.94,0c-.37,0-.65,0-.88,0-.71,0-2.45,0-3.36,0h-.4c-3.8,0-5.13,4-6.54,8.28C55.93,54.54,53.4,62.2,43.31,62.42,28.22,62.77,19,60.47,13.46,54.9,6.07,47.43,4.71,33,4.91,12v-.32a3.87,3.87,0,0,1,.54-2.5,3,3,0,0,1,2-.54H128.9a3,3,0,0,1,2,.54A3.88,3.88,0,0,1,131.44,11.69Z"/><path class="cls-4" d="M124.1,17.49a3.67,3.67,0,0,0-3.67-3.67H15.28a3.67,3.67,0,1,0,0,7.34H120.43A3.67,3.67,0,0,0,124.1,17.49Z"/></g></g>

<defs>


</defs>
			
	<rect x="25%" y="37.25%" width="50%" height="25%" fill="white" filter="url(#sofGlow)" />
</svg>