<svg xmlns="http://www.w3.org/2000/svg" viewBox="0 0 176.89 96.08"><defs><style>.cls-1{fill:#fab632;}.cls-2{fill:#f8a30e;}.cls-3{fill:#ffc751;}.cls-4{fill:#ffd283;}.cls-5{fill:#fff4dc;}.cls-6{fill:#842139;}</style></defs><title>helmet</title><g id="Layer_2" data-name="Layer 2"><g id="Layer_1-2" data-name="Layer 1"><path class="cls-1" d="M108.47,36.94l1.73.34.38,1.73a46.57,46.57,0,0,1,.83,9.1h0v4.28c0,11-9.19,20.3-16.27,25.84v2.92a9.92,9.92,0,0,1-.93,4.16h55.5v0l4,0H171.5l-9.36-5.39C160,47,131.42,20.43,95.18,17V27.47A20.84,20.84,0,0,0,108.47,36.94Z"/><path class="cls-1" d="M23.13,85.3l4,0v0h51a9.94,9.94,0,0,1-.93-4.16V78.2c-7.1-5.57-16.27-14.88-16.27-25.82l0-4.28a46.93,46.93,0,0,1,.83-9.1l.38-1.73,1.73-.34a20.83,20.83,0,0,0,13.29-9.47V17.22C41.94,21.43,14.42,47.6,12.28,79.91L5.39,85.3Z"/><path class="cls-2" d="M77.39,27.23l.7-1.1L79.38,26c.56-.06,1.18-.08,1.76-.12V8.94a5.06,5.06,0,1,1,10.1,0v16.9c.6,0,1.2.09,1.76.15l1.3.13.7,1.1.17.25V9.55c0-5.27-4-9.55-9-9.55a9.28,9.28,0,0,0-9,9.55V27.47Z"/><path class="cls-2" d="M95.18,78.23a72.47,72.47,0,0,1-7.35,5.07l-1.65.9-1.31-.72s-.39-.22-1.07-.64a75.78,75.78,0,0,1-6.59-4.63v2.94a9.94,9.94,0,0,0,.93,4.16h16.1a9.92,9.92,0,0,0,.93-4.16Z"/><path class="cls-3" d="M83.38,25.66l5.39.05c.86,0,1.67.08,2.47.13V8.94a5.06,5.06,0,1,0-10.1,0V25.87c.74-.05,1.45-.12,2.24-.16Z"/><path class="cls-4" d="M26.93,96.08H171.5a5.39,5.39,0,0,0,0-10.77H5.39a5.39,5.39,0,1,0,0,10.77H26.93Z"/><path class="cls-5" d="M86.2,78c8-5,19.66-15.08,19.86-25.33V50.79a69.51,69.51,0,0,0-.44-9A26.28,26.28,0,0,1,91.21,31.24c-1.5-.12-3.14-.18-4.9-.19h-.21c-1.76,0-3.4.07-4.9.19A26.3,26.3,0,0,1,66.78,41.79a68.57,68.57,0,0,0-.44,9v1.71C66.45,64.61,82,75.3,86.2,78Z"/><path class="cls-6" d="M84.87,83.47l1.31.72,1.65-.9a72.47,72.47,0,0,0,7.35-5.07c7.08-5.55,16.27-14.86,16.27-25.84V48.1h0a46.57,46.57,0,0,0-.83-9.1l-.38-1.73-1.73-.34a20.84,20.84,0,0,1-13.29-9.46L95,27.23l-.7-1.1L93,26c-.57-.06-1.16-.11-1.76-.15-.8-.06-1.61-.1-2.47-.13l-5.39-.05v.06c-.79,0-1.5.1-2.24.16-.58,0-1.21.07-1.76.12l-1.29.13-.7,1.1-.17.24a20.83,20.83,0,0,1-13.29,9.47l-1.73.34L61.82,39A46.93,46.93,0,0,0,61,48.1l0,4.28c0,10.94,9.17,20.24,16.27,25.82a75.78,75.78,0,0,0,6.59,4.63C84.48,83.25,84.87,83.47,84.87,83.47ZM66.34,50.8a68.57,68.57,0,0,1,.44-9A26.3,26.3,0,0,0,81.19,31.24c1.5-.12,3.14-.18,4.9-.19h.21c1.76,0,3.4.07,4.9.19a26.28,26.28,0,0,0,14.41,10.55,69.51,69.51,0,0,1,.44,9v1.85C105.86,62.89,94.16,72.95,86.2,78,82,75.3,66.45,64.61,66.33,52.51Z"/></g></g></svg>