<svg xmlns="http://www.w3.org/2000/svg" viewBox="0 0 87.35 149.74"><defs><style>.cls-1{fill:#842139;}.cls-2{fill:#fab632;}.cls-3{fill:#d59544;}</style></defs><title>leftGlove</title><g id="Layer_2" data-name="Layer 2"><g id="Layer_1-2" data-name="Layer 1"><path class="cls-1" d="M70.39,52.12c-15.67,0-18.85.31-47,2.26L22.7,43.85,69.59,40.6Z"/><path class="cls-2" d="M70.39,52.12l.69,9.9c2.24,4.42,3.6,7.86,3.6,7.86a5.69,5.69,0,0,1,.32.92l12.19,50a6.9,6.9,0,0,1-13.35,3.25l-7.21-29.6-.39.21L72,137.79a6.87,6.87,0,0,1-13.62,1.81l-5.58-42-1.31.09,3.11,44.72a6.87,6.87,0,1,1-13.7.95L37.67,97.59l-.28-.05-1.53,40.73a6.87,6.87,0,0,1-13.72-.52l1.78-47.52-11.7,18.37c-1.48,2.33-5.43,2.61-8.54.62a8.38,8.38,0,0,1-3.23-3.69,4.58,4.58,0,0,1,.19-4.32L22,67.66a4,4,0,0,1,.81-.9s.43-1.3,1.25-3.27l-.63-9.11C51.54,52.43,54.72,52.09,70.39,52.12Z"/><polygon class="cls-3" points="22.7 43.85 14.05 44.45 19.9 3.46 69.67 0 81.64 39.76 69.59 40.6 22.7 43.85"/></g></g></svg>