<svg xmlns="http://www.w3.org/2000/svg" viewBox="0 0 87.35 149.74"><defs><style>.cls-1{fill:#842139;}.cls-2{fill:#fab632;}.cls-3{fill:#d59544;}</style></defs><title>rightGlove</title><g id="Layer_2" data-name="Layer 2"><g id="Layer_1-2" data-name="Layer 1"><path class="cls-1" d="M17,52.12c15.67,0,18.85.31,47,2.26l.73-10.53L17.75,40.6Z"/><path class="cls-2" d="M17,52.12,16.27,62c-2.24,4.42-3.6,7.86-3.6,7.86a5.79,5.79,0,0,0-.32.92l-12.19,50a6.62,6.62,0,0,0,5.19,7.75,6.61,6.61,0,0,0,8.17-4.5l7.2-29.6.39.21-5.72,43.1A6.87,6.87,0,0,0,29,139.6l5.58-42,1.31.09-3.1,44.72a6.87,6.87,0,1,0,13.7.95l3.18-45.75.28-.05,1.54,40.73a6.87,6.87,0,0,0,13.73-.52L63.43,90.24l11.69,18.37c1.48,2.33,5.43,2.61,8.55.62a8.37,8.37,0,0,0,3.23-3.69,4.57,4.57,0,0,0-.19-4.32L65.34,67.66a4,4,0,0,0-.81-.9s-.43-1.3-1.25-3.27l.63-9.11C35.8,52.43,32.62,52.09,17,52.12Z"/><polygon class="cls-3" points="64.64 43.85 73.3 44.45 67.45 3.46 17.68 0 5.71 39.76 17.75 40.6 64.64 43.85"/></g></g></svg>