<svg xmlns="http://www.w3.org/2000/svg" viewBox="0 0 357.31 162.24"><defs><style>.cls-1{fill:#842139;}.cls-2{fill:#d59544;}.cls-3{fill:#fab632;}</style></defs><title>shoes</title><g id="Layer_2" data-name="Layer 2"><g id="Layer_1-2" data-name="Layer 1"><path class="cls-1" d="M286.14,68c-22.67,4.73-51.34,3.77-68.22,2.56l.63,10.92c21.9,3.21,44.59,4.64,67.09,5.24Z"/><path class="cls-2" d="M354.6,138.38a4.72,4.72,0,0,0,1.8-.43c-3.73-14.43-19.59-17.14-54.08-26.64-2.08-.57-16.78-12.86-16.78-21l.1-3.61c-22.5-.6-45.19-2-67.09-5.24l1.3,22.43s0,1.49-.06,4.29c1.94,1,3.6,1.76,4.87,1.76C253.08,150.56,309.93,162.74,354.6,138.38Z"/><path class="cls-3" d="M286.14,68a86.14,86.14,0,0,0,14.32-4.17C295.41,21.55,293.18.23,293.18.23L203.67.35V69.25s5.57.68,14.24,1.3C234.79,71.76,263.46,72.73,286.14,68Z"/><path d="M356.39,137.95a4.72,4.72,0,0,1-1.8.43C309.93,162.74,253.08,150.56,224.66,110c-1.27,0-2.93-.79-4.87-1.76-.07,6.55-.14,20.45.13,40.33,0,0,.77.28,2.45.73v5.65a16.88,16.88,0,0,1,2,.22c1.41.29,2.85.54,4.28.81v-5.26c2.45.48,5.45,1,9.18,1.56v5.3c2.09.33,4.18.66,6.28.94v-5.4c2.79.35,5.8.7,9.19,1v5.47c2.09.22,4.19.41,6.28.61v-5.49c2.87.25,5.92.5,9.18.73v5.49c2.1.14,4.2.28,6.29.4v-5.48q4.38.27,9.19.52v5.4c2.1.08,4.2.16,6.28.22v-5.38c3.14.1,6.22.16,9.19.16v5.41h.68l5.61,0V156.7c3.17-.08,6.25-.2,9.18-.37v4.84a49.55,49.55,0,0,1,6.28-1.16v-4.14c3.27-.29,6.3-.65,9.18-1v4.28c1.39-.14,2.78-.3,4.14-.51l2.15-.31v-4.43c3.46-.62,6.54-1.3,9.18-2v5.06c2.1-.34,4.2-.76,6.28-1.21v-5.95c3.18-1.34,4.91-2.7,4.91-3.88A31.36,31.36,0,0,0,356.39,137.95Z"/><path class="cls-1" d="M71.17,67.76c22.67,4.73,51.34,3.76,68.22,2.56l-.63,10.92c-21.9,3.21-44.59,4.64-67.09,5.24Z"/><path class="cls-2" d="M2.71,138.14a4.76,4.76,0,0,1-1.8-.43C4.64,123.28,20.51,120.58,55,111.07c2.08-.57,16.78-12.86,16.78-21l-.1-3.61c22.5-.6,45.19-2,67.09-5.24l-1.29,22.43s0,1.49.06,4.29c-1.94,1-3.6,1.76-4.87,1.76C104.23,150.33,47.38,162.51,2.71,138.14Z"/><path class="cls-3" d="M71.17,67.76a86.1,86.1,0,0,1-14.32-4.17C61.9,21.32,64.13,0,64.13,0l89.5.12V69s-5.57.68-14.24,1.3C122.51,71.52,93.84,72.49,71.17,67.76Z"/><path d="M.91,137.71a4.76,4.76,0,0,0,1.8.43c44.67,24.36,101.52,12.18,129.94-28.42,1.27,0,2.93-.79,4.87-1.76.07,6.55.14,20.45-.13,40.33,0,0-.77.28-2.45.73v5.65a16.9,16.9,0,0,0-2,.22c-1.41.29-2.86.54-4.28.81v-5.26c-2.45.48-5.45,1-9.18,1.56v5.3c-2.09.33-4.18.66-6.28.94v-5.4c-2.79.35-5.8.7-9.19,1v5.47c-2.09.22-4.19.41-6.28.61v-5.49q-4.31.37-9.18.73v5.49c-2.1.14-4.2.28-6.29.4v-5.48q-4.38.27-9.18.52v5.4c-2.1.08-4.2.16-6.28.22v-5.38c-3.14.1-6.22.16-9.18.16V162h-.68l-5.61,0v-5.54c-3.17-.08-6.25-.2-9.18-.37v4.84a49.12,49.12,0,0,0-6.28-1.16v-4.14c-3.27-.29-6.3-.65-9.18-1v4.28c-1.39-.14-2.78-.3-4.14-.51L20.38,158V153.6c-3.46-.62-6.54-1.3-9.18-2v5.06c-2.11-.34-4.21-.76-6.28-1.21v-5.95C1.73,148.13,0,146.78,0,145.59A31.31,31.31,0,0,1,.91,137.71Z"/></g></g></svg>