<svg xmlns="http://www.w3.org/2000/svg" viewBox="0 0 386.71 584.42"><defs><style>.cls-1{fill:#fab632;}.cls-2{fill:#842139;}.cls-3{fill:#ffd283;}.cls-4{fill:#d59544;}.cls-5{fill:#a15c03;}</style></defs><title>suit</title><g id="Layer_2" data-name="Layer 2"><g id="Layer_1-2" data-name="Layer 1"><path class="cls-1" d="M0,250l62.62,20,9-28.07C51.4,233,31.2,223.39,11,215.5Z"/><path class="cls-2" d="M11,215.5C31.2,223.39,51.4,233,71.58,241.94l1.6-5L12.31,211.46Z"/><path class="cls-2" d="M14.73,203.88,75.6,229.36,90.08,184c-18.38-12.62-39.84-20.09-58.94-31.51Z"/><path class="cls-3" d="M78.1,98.11c.14-.47.29-.94.42-1.41s.2-.72.29-1.08c.27-1.14.51-2.28.68-3.4,0,0,0-.1,0-.15a31,31,0,0,0,.34-5.47c0-.1,0-.19,0-.29a25,25,0,0,0-.23-2.5c0-.11,0-.23-.06-.35a21.6,21.6,0,0,0-.47-2.19L79,81a19.26,19.26,0,0,0-.78-2.19c-.07-.16-.14-.31-.21-.47a17.94,17.94,0,0,0-1.1-2.09c-3.27-4.91-10.42-7-18.57-9l-18,30.89a22.71,22.71,0,0,0,6.81,4.21l.31-1C57.54,101.07,67.89,99.6,78.1,98.11Z"/><path class="cls-4" d="M55.94,131.54c.53-.46,1.07-1,1.6-1.45l.5-.48,1.1-1.07.57-.58c.35-.36.71-.73,1.06-1.1l.53-.56,1.21-1.34.34-.38q1.58-1.82,3.1-3.78l.28-.37c.42-.54.82-1.09,1.23-1.65l.29-.4c.42-.59.84-1.18,1.25-1.78l.16-.25c1.45-2.15,2.81-4.37,4-6.63v0q.61-1.12,1.18-2.27l0,0c.56-1.12,1.07-2.25,1.56-3.38.1-.24.21-.47.31-.71.45-1.1.87-2.19,1.25-3.29l.21-.63c.14-.42.25-.84.37-1.26-10.21,1.49-20.55,3-30.64,3.25l-.31,1L37.08,133.86C43.61,136.8,50.85,136.63,55.94,131.54Z"/><path class="cls-3" d="M136.84,426c0-.73.07-1.46.1-2.18.06-1.51.12-3,.17-4.52,0-.93.07-1.86.09-2.78.06-1.81.11-3.62.17-5.41.07-2.1.14-4.18.22-6.24-15.11-1.48-30.19-3.43-45.1-6.12L82.16,431.92c1.83,5.2,4.92,8.17,8.75,9.65,15.4-3.7,30.72-6.07,45.59-9.65Q136.7,429,136.84,426Z"/><path class="cls-4" d="M113.14,486.15c1-.63,1.9-1.3,2.8-2,.25-.19.5-.38.74-.59.71-.57,1.4-1.16,2.06-1.77.17-.15.35-.3.51-.46.8-.75,1.55-1.54,2.27-2.35.17-.19.33-.38.5-.58q.85-1,1.64-2l.52-.68c.64-.88,1.25-1.78,1.83-2.69,0-.08.09-.16.13-.23.53-.86,1-1.74,1.51-2.64l.4-.76c.44-.87.86-1.74,1.26-2.63l.17-.39c.45-1,.87-2.09,1.27-3.15l.24-.67c.32-.9.63-1.81.92-2.74.07-.21.14-.42.2-.64.34-1.12.66-2.27,1-3.42,0-.07,0-.13,0-.2.28-1.09.53-2.2.77-3.33l.13-.64q.74-3.63,1.26-7.38c0-.12,0-.25.05-.37.16-1.24.32-2.48.46-3.72a.48.48,0,0,0,0-.07c.28-2.57.5-5.17.68-7.77,0-.11,0-.22,0-.34-14.88,3.57-30.19,6-45.59,9.65l-1.43.33-3,43.58C96.31,488.89,106.38,489.52,113.14,486.15Z"/><path class="cls-2" d="M137.37,411.16c-.05,1.78-.11,3.6-.17,5.41,0,.92-.07,1.85-.09,2.78-.05,1.5-.11,3-.17,4.52,0,.72-.06,1.45-.1,2.18q-.14,2.94-.34,5.88c0,.11,0,.22,0,.34-.18,2.6-.4,5.2-.68,7.77a.48.48,0,0,1,0,.07c-.14,1.25-.29,2.48-.46,3.72,0,.12,0,.25-.05.37q-.52,3.75-1.26,7.38l-.13.64c-.24,1.12-.49,2.24-.77,3.33,0,.07,0,.13,0,.2-.3,1.15-.62,2.3-1,3.42-.07.22-.14.43-.2.64-.29.93-.6,1.84-.92,2.74l-.24.67c-.4,1.06-.82,2.11-1.27,3.15l-.17.39c-.4.89-.82,1.76-1.26,2.63l-.4.76c-.48.9-1,1.77-1.51,2.64,0,.07-.09.15-.13.23-.58.91-1.19,1.81-1.83,2.69l-.52.68q-.79,1-1.64,2c-.17.2-.33.39-.5.58-.72.81-1.47,1.6-2.27,2.35-.17.16-.34.31-.51.46-.66.61-1.34,1.2-2.06,1.77-.24.2-.49.4-.74.59-.9.69-1.82,1.36-2.8,2-6.75,3.37-16.82,2.74-26.69-.67l-.17,2.4,92.27,10.7,6.29-90.27c-15.69-.81-31.49-1.85-47.25-3.4C137.51,407,137.44,409.06,137.37,411.16Z"/><path class="cls-2" d="M85.24,502.79c30.43,6.38,60.9,9.06,92.16,12.38l.6-8.66L85.73,495.8Z"/><path class="cls-1" d="M80,578l92.57,6.46,4.83-69.25c-31.26-3.32-61.73-6-92.16-12.38Z"/><path class="cls-1" d="M375.69,215.5c-20.19,7.89-40.38,17.52-60.56,26.44l9,28.07,62.62-20Z"/><path class="cls-2" d="M374.45,211.62l-60.86,25.48,1.55,4.85c20.18-8.92,40.37-18.55,60.56-26.44Z"/><path class="cls-2" d="M355.58,152.48C336.47,163.89,315,171.36,296.64,184l14.53,45.52L372,204Z"/><path class="cls-3" d="M309.8,76.26a17.71,17.71,0,0,0-1.1,2.09c-.07.16-.14.31-.21.47a19.16,19.16,0,0,0-.78,2.19c0,.09,0,.19-.07.28a22,22,0,0,0-.47,2.19c0,.12,0,.23-.05.35a23.38,23.38,0,0,0-.23,2.5c0,.1,0,.19,0,.29a31.46,31.46,0,0,0,.34,5.47c0,.05,0,.1,0,.16.17,1.12.41,2.26.68,3.4.09.36.19.72.29,1.08s.28.93.41,1.41c10.21,1.49,20.56,3,30.65,3.25l.31,1a22.64,22.64,0,0,0,6.8-4.21l-18-30.89C320.22,69.24,313.08,71.34,309.8,76.26Z"/><path class="cls-4" d="M308.61,98.11c.13.42.24.84.37,1.25l.21.64c.38,1.1.8,2.2,1.25,3.29.1.24.2.47.3.7.48,1.14,1,2.27,1.56,3.4l0,0q.57,1.14,1.18,2.27v0c1.23,2.26,2.58,4.48,4,6.63l.17.25c.41.6.82,1.19,1.24,1.78l.29.41c.4.55.81,1.1,1.22,1.64l.29.37q1.51,2,3.09,3.78l.34.38c.4.45.81.9,1.21,1.34l.53.57c.35.38.7.74,1.05,1.1l.57.58,1.1,1.07.51.49c.53.5,1.06,1,1.6,1.45,5.08,5.09,12.33,5.26,18.86,2.31l-10.06-31.52-.31-1C329.17,101.07,318.82,99.6,308.61,98.11Z"/><path class="cls-2" d="M195.62,251.39c31.1.59,62.2,2,93.3,2.15V243l-93.3-.09Z"/><path class="cls-2" d="M195.62,188.28V235l93.3.1V188.87C258.24,189.94,226.76,188.62,195.62,188.28Z"/><path class="cls-2" d="M191.93,188.27c-31.42.33-63.18,1.68-94.13.6v46l94.13.1Z"/><path class="cls-2" d="M191.93,242.92l-94.13-.1v10.71c31.38-.16,62.76-1.59,94.13-2.17Z"/><path class="cls-1" d="M195.62,290.42h-3.68V251.37c-31.38.58-62.76,2-94.13,2.17v45h1.68l-7,100.31c14.91,2.69,30,4.63,45.1,6.12,15.76,1.55,31.56,2.59,47.25,3.4L190.17,332h6.38l5.32,76.31c15.69-.81,31.49-1.85,47.25-3.4,15.11-1.48,30.19-3.43,45.11-6.12l-7-100.31h1.69v-45c-31.1-.16-62.2-1.56-93.3-2.15Z"/><path class="cls-1" d="M191.93,188.27V24.13c-6.72,10.14-17.07,25-26.57,33.54-6.92-14.71-20.71-34.21-25.85-47L82.94,21.12A15.25,15.25,0,0,0,67.69,36.37V38L58.34,67.24c8.14,2,15.29,4.1,18.57,9A17.94,17.94,0,0,1,78,78.35c.07.16.14.31.21.47A19.26,19.26,0,0,1,79,81l.07.28a21.6,21.6,0,0,1,.47,2.19c0,.12,0,.23.06.35a25,25,0,0,1,.23,2.5c0,.1,0,.19,0,.29a31,31,0,0,1-.34,5.47s0,.1,0,.15c-.17,1.12-.41,2.26-.68,3.4-.08.36-.19.72-.29,1.08s-.27.93-.42,1.41-.23.84-.37,1.26l-.21.63c-.38,1.1-.8,2.19-1.25,3.29-.1.24-.2.48-.31.71-.49,1.13-1,2.26-1.56,3.38l0,0q-.57,1.14-1.18,2.27v0c-1.23,2.26-2.59,4.48-4,6.63l-.16.25c-.41.6-.83,1.19-1.25,1.78l-.29.4c-.4.56-.81,1.1-1.23,1.65l-.28.37q-1.51,2-3.1,3.78l-.34.38-1.21,1.34-.53.56c-.35.38-.7.74-1.06,1.1l-.57.58L58,129.61l-.5.48c-.53.5-1.07,1-1.6,1.45-5.09,5.09-12.33,5.26-18.86,2.31l-5.95,18.62C50.24,163.89,71.7,171.36,90.08,184l4.52-14.17h3.2v19.05C128.75,190,160.52,188.6,191.93,188.27ZM119,86.31h57.88v27.63H119Z"/><path class="cls-1" d="M349.63,133.86c-6.53,2.94-13.78,2.77-18.86-2.31-.53-.46-1.06-.95-1.6-1.45l-.51-.49-1.1-1.07L327,128c-.35-.36-.7-.72-1.05-1.1l-.53-.57c-.41-.44-.81-.89-1.21-1.34l-.34-.38q-1.58-1.82-3.09-3.78l-.29-.37c-.41-.54-.82-1.08-1.22-1.64l-.29-.41c-.42-.59-.84-1.18-1.24-1.78l-.17-.25c-1.45-2.15-2.81-4.37-4-6.63v0q-.61-1.13-1.18-2.27l0,0c-.56-1.13-1.08-2.26-1.56-3.4-.1-.23-.2-.46-.3-.7-.45-1.09-.87-2.19-1.25-3.29l-.21-.64c-.13-.42-.25-.84-.37-1.25s-.28-.94-.41-1.41-.2-.72-.29-1.08c-.28-1.14-.52-2.28-.68-3.4,0-.05,0-.1,0-.16a31.46,31.46,0,0,1-.34-5.47c0-.1,0-.19,0-.29a23.38,23.38,0,0,1,.23-2.5c0-.11,0-.23.05-.35a22,22,0,0,1,.47-2.19c0-.09,0-.19.07-.28a19.16,19.16,0,0,1,.78-2.19c.07-.16.14-.31.21-.47a17.71,17.71,0,0,1,1.1-2.09c3.28-4.91,10.42-7,18.57-9L319,38v-1.6a15.25,15.25,0,0,0-15.25-15.25L246.29,10.54c-5.09,12.75-19,32.37-25.92,47.14-8.67-7.82-18.07-20.89-24.76-30.83V188.28c31.15.34,62.62,1.66,93.3.59V169.81h3.2L296.64,184c18.38-12.62,39.84-20.09,58.94-31.51Zm-75.54-19.91H216.21V86.31h57.88Z"/><path class="cls-3" d="M249.33,411.16c.06,1.78.11,3.6.17,5.41,0,.92.06,1.85.09,2.78.05,1.5.11,3,.17,4.52,0,.72.06,1.45.09,2.18q.15,2.94.34,5.88c14.88,3.57,30.19,6,45.59,9.65,3.84-1.48,6.92-4.45,8.75-9.65L294.23,398.8c-14.92,2.69-30,4.63-45.11,6.12C249.2,407,249.27,409.06,249.33,411.16Z"/><path class="cls-4" d="M250.23,432.26c.18,2.6.39,5.2.68,7.77,0,0,0,0,0,.07.14,1.25.29,2.48.46,3.72,0,.12,0,.25.05.37q.52,3.75,1.26,7.38l.13.64c.24,1.12.49,2.24.77,3.33,0,.07,0,.13,0,.2.3,1.15.61,2.3,1,3.42.07.22.13.43.2.64.29.93.6,1.84.92,2.74l.24.67c.4,1.06.82,2.11,1.27,3.15,0,.13.11.26.17.39.4.89.82,1.76,1.26,2.63l.4.76q.71,1.34,1.5,2.64c.05.07.09.15.14.23.57.91,1.19,1.81,1.83,2.69l.52.68q.79,1,1.64,2l.5.58c.73.81,1.48,1.6,2.27,2.35.16.16.34.31.51.46.67.61,1.35,1.2,2.06,1.77.24.2.49.4.74.59.9.69,1.82,1.36,2.8,2,6.75,3.37,16.82,2.74,26.69-.67l-3-43.58-1.43-.33c-15.4-3.7-30.72-6.07-45.59-9.65C250.22,432,250.22,432.14,250.23,432.26Z"/><polygon class="cls-5" points="191.93 290.42 195.62 290.42 195.62 251.39 195.62 242.93 191.93 242.92 191.93 251.37 191.93 290.42"/><path class="cls-5" d="M191.93,24.13V235h3.68V26.84c-1-1.45-1.89-2.83-2.75-4.12Z"/><path class="cls-2" d="M273.58,486.15c-1-.63-1.9-1.3-2.8-2-.25-.19-.5-.38-.74-.59-.71-.57-1.39-1.16-2.06-1.77-.17-.15-.35-.3-.51-.46-.79-.75-1.54-1.54-2.27-2.35l-.5-.58q-.86-1-1.64-2l-.52-.68c-.64-.88-1.26-1.78-1.83-2.69,0-.08-.09-.16-.14-.23q-.79-1.3-1.5-2.64l-.4-.76c-.44-.87-.86-1.74-1.26-2.63-.06-.13-.13-.26-.17-.39-.46-1-.87-2.09-1.27-3.15l-.24-.67c-.32-.9-.63-1.81-.92-2.74-.07-.21-.14-.42-.2-.64-.34-1.12-.66-2.27-1-3.42,0-.07,0-.13,0-.2-.28-1.09-.53-2.2-.77-3.33l-.13-.64q-.74-3.63-1.26-7.38c0-.12,0-.25-.05-.37-.17-1.24-.32-2.48-.46-3.72,0,0,0,0,0-.07-.29-2.57-.5-5.17-.68-7.77,0-.11,0-.22,0-.34q-.2-2.93-.34-5.88c0-.73-.06-1.46-.09-2.18-.06-1.51-.12-3-.17-4.52,0-.93-.07-1.86-.09-2.78-.06-1.81-.11-3.62-.17-5.41-.07-2.1-.13-4.18-.22-6.24-15.76,1.55-31.55,2.59-47.25,3.4l6.3,90.31,92.27-10.71-.17-2.44C290.4,488.89,280.33,489.52,273.58,486.15Z"/><path class="cls-2" d="M209.32,515.17c31.25-3.32,61.73-6,92.16-12.38l-.49-6.95-92.27,10.7Z"/><path class="cls-1" d="M214.15,584.42,306.72,578l-5.24-75.18c-30.42,6.38-60.9,9.06-92.16,12.38Z"/><path class="cls-2" d="M191.93,24.13l.94-1.41c.85,1.29,1.77,2.68,2.75,4.12,6.69,9.94,16.09,23,24.76,30.83,6.95-14.77,20.83-34.38,25.92-47.14A37.5,37.5,0,0,0,247.54,7l-22.4-7L192.87,20,160.6,0,138.2,7a38,38,0,0,0,1.31,3.71c5.14,12.76,18.93,32.26,25.85,47C174.86,49.1,185.21,34.27,191.93,24.13Z"/><polygon points="12.31 211.46 73.17 236.94 75.6 229.36 14.73 203.88 12.31 211.46"/><polygon points="85.73 495.8 178 506.5 178.55 498.58 86.28 487.88 85.73 495.8"/><polygon points="372.03 204.03 311.16 229.5 313.58 237.09 374.45 211.62 372.03 204.03"/><polygon points="208.72 506.55 300.99 495.85 300.44 487.92 208.17 498.63 208.72 506.55"/><polygon points="191.93 235 97.8 234.9 97.8 242.83 191.93 242.92 195.62 242.93 288.92 243.02 288.92 235.1 195.62 235 191.93 235"/><rect class="cls-3" x="118.99" y="86.31" width="57.88" height="27.63"/><rect class="cls-3" x="216.21" y="86.31" width="57.88" height="27.63"/></g></g></svg>