<svg id="Layer_1" data-name="Layer 1" xmlns="http://www.w3.org/2000/svg" viewBox="0 0 56 56"><defs><style>.cls-1{fill:#04a200;}.cls-2{fill:#fff9d9;}</style></defs><title>visited</title><path class="cls-1" d="M51.14,28a23.16,23.16,0,1,1-7.49-17L27.1,27.51,19,19.41l-5.93,5.94,8.09,8.1,5.94,5.93L33,33.45l15.7-15.71A23,23,0,0,1,51.14,28Z"/><path class="cls-2" d="M51.6,14.89A27.14,27.14,0,0,0,28,1,27,27,0,1,0,51.6,14.89ZM28,51.14A23.14,23.14,0,1,1,43.65,11L27.1,27.51,19,19.41l-5.93,5.94,8.09,8.1,5.94,5.93L33,33.45l15.7-15.71A23.14,23.14,0,0,1,28,51.14Z"/></svg>